# xmcd
#
# Track frame offsets: 
#        150
#        17275
#        35576
#        51158
#        66568
#        81870
#        99122
#        117228
#        130679
#        147036
#        162786
#        180284
#        201928
#
# Disc length: 2893 seconds
#
# Revision: 0
# Processed by: cddbd v1.5.1PL2 Copyright (c) Steve Scherf et al.
# Submitted via: ExactAudioCopy v0.95b3
#
DISCID=a20b4b0d
DTITLE=Julie Roberts - Men and Mascara
DYEAR=2006
DGENRE=Country
TTITLE0=Paint and Pillows
TTITLE1=Smile
TTITLE2=Too Damn Young
TTITLE3=Men and Mascara
TTITLE4=First to Never Know
TTITLE5=Chasin' Whiskey
TTITLE6=A Bridge That's Burning
TTITLE7=Girl Next Door
TTITLE8=Lonely Alone
TTITLE9=That Ain't A Crime
TTITLE10=Mama Don't Cry
TTITLE11=All I Want is You
TTITLE12=I Don't Want to be a Memory Anymore (Bonus Track)
EXTD=
EXTT0=
EXTT1=
EXTT2=
EXTT3=
EXTT4=
EXTT5=
EXTT6=
EXTT7=
EXTT8=
EXTT9=
EXTT10=
EXTT11=
EXTT12=
PLAYORDER=
